<?xml version="1.0" standalone="no"?><!DOCTYPE svg PUBLIC "-//W3C//DTD SVG 1.1//EN" "http://www.w3.org/Graphics/SVG/1.1/DTD/svg11.dtd"><svg t="1585563460075" class="icon" viewBox="0 0 1024 1024" version="1.1" xmlns="http://www.w3.org/2000/svg" p-id="3669" xmlns:xlink="http://www.w3.org/1999/xlink" width="200" height="200"><defs><style type="text/css"></style></defs><path d="M907.8 0H116.2C52.3 0 0 52.3 0 116.2v791.7C0 971.7 52.3 1024 116.2 1024h791.7c63.9 0 116.2-52.3 116.2-116.2V116.2C1024 52.3 971.7 0 907.8 0zM208.9 222.9c24.5 2.8 44.1 3.5 77 3.5h184.8c-5.6-14.7-10.5-26.6-26.6-58.8l72.8-20.3c14 28.7 20.3 43.4 33.6 79.1h188.3c32.2 0 52.5-0.7 77-3.5-2.1 15.4-2.8 28.7-2.8 52.5v38.5c0 20.3 0.7 35.7 3.5 52.5h-77v-72.1H285.9v93.1h-77.7c2.8-18.9 3.5-35.7 3.5-56.7v-55.3c0-23.1-0.7-36.4-2.8-52.5z m602 223.3l-56 58.1c-79.1-67.2-117.6-93.1-202.3-137.2l45.5-49c92.4 44.8 140.7 74.2 212.8 128.1z m-492.8-47.6c39.2-21.7 58.1-37.1 95.9-76.3l63.7 36.4c-39.2 44.1-60.9 63-104.3 91-38.5 25.2-65.1 38.5-123.2 61.6-11.9-29.4-23.8-45.5-47.6-63 57.4-21 83.3-32.2 115.5-49.7z m507.5 383.6c-23.8-2.8-51.1-4.2-86.1-4.2H285.9c-35.7 0-63 1.4-86.8 4.2v-77.7c14.7 2.1 56 4.2 86.8 4.2h186.2V588.3H337c-37.1 0-59.5 1.4-80.5 4.2v-78.4c21.7 2.8 39.9 4.2 73.5 4.2h355.6c32.9 0 61.6-1.4 82.6-4.2v78.4c-21.7-2.8-46.9-4.2-81.9-4.2H549.8v120.4h189.7c36.4 0 67.9-1.4 86.1-4.2v77.7z" p-id="3670" fill="#000000" data-spm-anchor-id="a313x.7781069.0.i0" class=""></path></svg>